<svg width="35" height="35" viewBox="0 0 35 35" fill="none" xmlns="http://www.w3.org/2000/svg">
<g clip-path="url(#clip0_216_288)">
<path d="M17.5003 13.8833C16.785 13.8833 16.0858 14.0954 15.491 14.4928C14.8963 14.8902 14.4327 15.4551 14.159 16.1159C13.8852 16.7768 13.8136 17.504 13.9532 18.2055C14.0927 18.9071 14.4372 19.5515 14.943 20.0573C15.4488 20.5631 16.0932 20.9076 16.7947 21.0471C17.4963 21.1867 18.2235 21.1151 18.8844 20.8413C19.5452 20.5676 20.1101 20.104 20.5075 19.5093C20.9049 18.9145 21.117 18.2153 21.117 17.5C21.117 17.025 21.0234 16.5547 20.8417 16.1159C20.6599 15.6771 20.3935 15.2784 20.0577 14.9426C19.7219 14.6068 19.3232 14.3403 18.8844 14.1586C18.4456 13.9768 17.9753 13.8833 17.5003 13.8833ZM31.9816 10.3104C31.9739 9.18419 31.7665 8.06829 31.3691 7.01454C31.0764 6.24346 30.6235 5.54322 30.0403 4.96002C29.4571 4.37682 28.7568 3.92392 27.9857 3.63121C26.932 3.23376 25.8161 3.02638 24.6899 3.01871C22.8087 2.91663 22.2545 2.91663 17.5003 2.91663C12.7462 2.91663 12.192 2.91663 10.3107 3.01871C9.18456 3.02638 8.06866 3.23376 7.01491 3.63121C6.24383 3.92392 5.54359 4.37682 4.96039 4.96002C4.37719 5.54322 3.92429 6.24346 3.63158 7.01454C3.23413 8.06829 3.02675 9.18419 3.01908 10.3104C2.91699 12.1916 2.91699 12.7458 2.91699 17.5C2.91699 22.2541 2.91699 22.8083 3.01908 24.6895C3.03477 25.8197 3.24187 26.939 3.63158 28C3.92299 28.7675 4.37551 29.4637 4.95866 30.0416C5.53936 30.6283 6.2411 31.0812 7.01491 31.3687C8.06866 31.7662 9.18456 31.9735 10.3107 31.9812C12.192 32.0833 12.7462 32.0833 17.5003 32.0833C22.2545 32.0833 22.8087 32.0833 24.6899 31.9812C25.8161 31.9735 26.932 31.7662 27.9857 31.3687C28.7595 31.0812 29.4613 30.6283 30.042 30.0416C30.6251 29.4637 31.0777 28.7675 31.3691 28C31.7661 26.941 31.9735 25.8204 31.9816 24.6895C32.0837 22.8083 32.0837 22.2541 32.0837 17.5C32.0837 12.7458 32.0837 12.1916 31.9816 10.3104ZM28.2774 21.977C28.2306 22.877 28.0385 23.7634 27.7087 24.602C27.4255 25.3016 27.0047 25.9371 26.471 26.4707C25.9374 27.0043 25.3019 27.4252 24.6024 27.7083C23.7559 28.0198 22.8645 28.1922 21.9628 28.2187H13.0378C12.1362 28.1922 11.2448 28.0198 10.3982 27.7083C9.67506 27.4395 9.02198 27.0108 8.48783 26.4541C7.95942 25.9309 7.55135 25.2989 7.29199 24.602C6.97926 23.7564 6.81163 22.864 6.79616 21.9625V13.0375C6.81163 12.136 6.97926 11.2435 7.29199 10.3979C7.56074 9.67469 7.98948 9.02161 8.54616 8.48746C9.07164 7.96191 9.703 7.55426 10.3982 7.29163C11.2448 6.98013 12.1362 6.80777 13.0378 6.78121H21.9628C22.8645 6.80777 23.7559 6.98013 24.6024 7.29163C25.3256 7.56037 25.9787 7.98911 26.5128 8.54579C27.0412 9.06897 27.4493 9.70099 27.7087 10.3979C28.0201 11.2444 28.1925 12.1358 28.2191 13.0375V17.5C28.2191 20.5041 28.3212 20.8104 28.2774 21.9625V21.977ZM25.9441 11.127C25.7704 10.656 25.4967 10.2282 25.1417 9.87319C24.7867 9.51819 24.3589 9.24443 23.8878 9.07079C23.241 8.84659 22.5598 8.73799 21.8753 8.74996H13.1253C12.4374 8.75668 11.7561 8.88505 11.1128 9.12913C10.649 9.29487 10.2257 9.55746 9.87118 9.89942C9.51664 10.2414 9.23896 10.6549 9.05658 11.1125C8.84479 11.762 8.74133 12.4419 8.75033 13.125V21.875C8.76478 22.5621 8.8929 23.2421 9.12949 23.8875C9.30313 24.3585 9.57689 24.7863 9.93189 25.1413C10.2869 25.4963 10.7147 25.7701 11.1857 25.9437C11.808 26.1725 12.4627 26.3005 13.1253 26.3229H21.8753C22.5633 26.3161 23.2446 26.1878 23.8878 25.9437C24.3589 25.7701 24.7867 25.4963 25.1417 25.1413C25.4967 24.7863 25.7704 24.3585 25.9441 23.8875C26.1882 23.2442 26.3165 22.5629 26.3232 21.875V13.125C26.3237 12.4363 26.1951 11.7537 25.9441 11.1125V11.127ZM17.5003 23.0708C16.7694 23.0708 16.0457 22.9266 15.3707 22.6465C14.6956 22.3663 14.0824 21.9557 13.5663 21.4383C13.0502 20.9208 12.6412 20.3065 12.3628 19.6307C12.0845 18.9549 11.9422 18.2308 11.9441 17.5C11.9441 16.3975 12.2712 15.3199 12.884 14.4035C13.4967 13.487 14.3676 12.773 15.3864 12.3518C16.4052 11.9306 17.5261 11.8211 18.6071 12.0373C19.6881 12.2534 20.6807 12.7854 21.4592 13.566C22.2378 14.3465 22.7672 15.3405 22.9805 16.4221C23.1938 17.5037 23.0814 18.6243 22.6575 19.6419C22.2336 20.6596 21.5173 21.5287 20.5993 22.139C19.6812 22.7494 18.6027 23.0737 17.5003 23.0708ZM23.3337 13.0229C23.0113 12.9888 22.7129 12.8365 22.4961 12.5955C22.2793 12.3546 22.1593 12.0418 22.1593 11.7177C22.1593 11.3935 22.2793 11.0808 22.4961 10.8398C22.7129 10.5988 23.0113 10.4466 23.3337 10.4125C23.656 10.4466 23.9544 10.5988 24.1712 10.8398C24.388 11.0808 24.508 11.3935 24.508 11.7177C24.508 12.0418 24.388 12.3546 24.1712 12.5955C23.9544 12.8365 23.656 12.9888 23.3337 13.0229Z" fill="#F7F7FF"/>
</g>
<defs>
<clipPath id="clip0_216_288">
<rect width="35" height="35" fill="white"/>
</clipPath>
</defs>
</svg>
