<svg width="35" height="35" viewBox="0 0 35 35" fill="none" xmlns="http://www.w3.org/2000/svg">
<g clip-path="url(#clip0_216_289)">
<path fill-rule="evenodd" clip-rule="evenodd" d="M6.5625 2.1875C5.40218 2.1875 4.28938 2.64844 3.46891 3.46891C2.64844 4.28938 2.1875 5.40218 2.1875 6.5625V28.4375C2.1875 29.5978 2.64844 30.7106 3.46891 31.5311C4.28938 32.3516 5.40218 32.8125 6.5625 32.8125H28.4375C29.5978 32.8125 30.7106 32.3516 31.5311 31.5311C32.3516 30.7106 32.8125 29.5978 32.8125 28.4375V6.5625C32.8125 5.40218 32.3516 4.28938 31.5311 3.46891C30.7106 2.64844 29.5978 2.1875 28.4375 2.1875H6.5625ZM8.97313 11.5872C9.66642 11.5872 10.3313 11.3118 10.8215 10.8215C11.3118 10.3313 11.5872 9.66642 11.5872 8.97313C11.5872 8.27983 11.3118 7.61494 10.8215 7.1247C10.3313 6.63447 9.66642 6.35906 8.97313 6.35906C8.27983 6.35906 7.61494 6.63447 7.1247 7.1247C6.63447 7.61494 6.35906 8.27983 6.35906 8.97313C6.35906 9.66642 6.63447 10.3313 7.1247 10.8215C7.61494 11.3118 8.27983 11.5872 8.97313 11.5872ZM11.1606 28.0284V13.6369H6.78562V28.0284H11.1606ZM14.0656 13.6369H18.4406V15.5641C19.0859 14.5534 20.5034 13.1928 23.1394 13.1928C26.285 13.1928 27.9934 15.2775 27.9934 19.2434C27.9934 19.4337 28.0109 20.3022 28.0109 20.3022V28.0263H23.6359V20.3044C23.6359 19.2434 23.4128 17.1587 21.0547 17.1587C18.6944 17.1587 18.4953 19.7794 18.4406 21.4944V28.0263H14.0656V13.6369Z" fill="#F7F7FF"/>
</g>
<defs>
<clipPath id="clip0_216_289">
<rect width="35" height="35" fill="white"/>
</clipPath>
</defs>
</svg>
